<svg version="1.1" id="Layer_1" xmlns="http://www.w3.org/2000/svg" x="0px" y="0px" viewBox="0 0 1272.5 137.7" style="enable-background:new 0 0 1272.5 137.7;" xmlns:xlink="http://www.w3.org/1999/xlink" xml:space="preserve">
<g>
	<path d="M115.5,131.2H91.2l-55-83.1v83.1H12V10h24.3l55,83.2V10h24.3V131.2z"></path>
	<path d="M228.1,90.4h-70.2c0.6,6.9,3,12.4,7.3,16.3c4.3,3.9,9.5,5.9,15.8,5.9c9,0,15.4-3.9,19.3-11.6h26.2
		c-2.8,9.3-8.1,16.9-16,22.8c-7.9,6-17.5,8.9-29,8.9c-9.3,0-17.5-2.1-24.9-6.2c-7.3-4.1-13.1-9.9-17.2-17.4
		c-4.1-7.5-6.2-16.2-6.2-26c0-9.9,2-18.7,6.1-26.2c4-7.5,9.7-13.3,17-17.3c7.3-4,15.7-6.1,25.1-6.1c9.1,0,17.3,2,24.5,5.9
		c7.2,3.9,12.8,9.5,16.8,16.7c4,7.2,6,15.5,6,24.9C228.8,84.5,228.5,87.7,228.1,90.4z M203.6,74.1c-0.1-6.2-2.4-11.2-6.8-15
		c-4.4-3.8-9.8-5.6-16.1-5.6c-6,0-11.1,1.8-15.2,5.5c-4.1,3.6-6.6,8.7-7.5,15.2H203.6z"></path>
	<path d="M246,57c3.9-7.5,9.1-13.3,15.8-17.3c6.6-4,14.1-6.1,22.3-6.1c7.2,0,13.4,1.4,18.8,4.3c5.4,2.9,9.7,6.5,12.9,10.9V35.1h24.5
		v96.1h-24.5v-14c-3.1,4.5-7.4,8.2-12.9,11.2c-5.5,2.9-11.8,4.4-19,4.4c-8.1,0-15.5-2.1-22.1-6.2c-6.6-4.2-11.9-10-15.8-17.6
		c-3.9-7.6-5.8-16.3-5.8-26.1C240.2,73.1,242.1,64.5,246,57z M312.4,68c-2.3-4.2-5.4-7.5-9.4-9.7c-3.9-2.3-8.2-3.4-12.7-3.4
		s-8.7,1.1-12.5,3.3c-3.8,2.2-6.9,5.4-9.3,9.6c-2.4,4.2-3.6,9.2-3.6,15c0,5.8,1.2,10.8,3.6,15.2c2.4,4.3,5.5,7.7,9.4,10
		c3.9,2.3,8,3.5,12.4,3.5c4.5,0,8.7-1.1,12.7-3.4c3.9-2.3,7.1-5.5,9.4-9.7c2.3-4.2,3.5-9.3,3.5-15.2S314.7,72.2,312.4,68z"></path>
	<path d="M400.5,38.1c5-2.9,10.8-4.3,17.3-4.3v25.5h-6.4c-7.6,0-13.4,1.8-17.3,5.4c-3.9,3.6-5.8,9.8-5.8,18.7v47.9H364V35.1h24.3V50
		C391.4,44.9,395.5,41,400.5,38.1z"></path>
	<path d="M522.7,90.4h-70.2c0.6,6.9,3,12.4,7.3,16.3c4.3,3.9,9.5,5.9,15.8,5.9c9,0,15.4-3.9,19.3-11.6H521
		c-2.8,9.3-8.1,16.9-16,22.8c-7.9,6-17.5,8.9-29,8.9c-9.3,0-17.5-2.1-24.9-6.2c-7.3-4.1-13.1-9.9-17.2-17.4
		c-4.1-7.5-6.2-16.2-6.2-26c0-9.9,2-18.7,6.1-26.2c4-7.5,9.7-13.3,17-17.3c7.3-4,15.7-6.1,25.1-6.1c9.1,0,17.3,2,24.5,5.9
		c7.2,3.9,12.8,9.5,16.8,16.7c4,7.2,6,15.5,6,24.9C523.4,84.5,523.2,87.7,522.7,90.4z M498.3,74.1c-0.1-6.2-2.4-11.2-6.8-15
		c-4.4-3.8-9.8-5.6-16.1-5.6c-6,0-11.1,1.8-15.2,5.5c-4.1,3.6-6.6,8.7-7.5,15.2H498.3z"></path>
	<path d="M556.7,128.5c-6.2-2.8-11.2-6.7-14.8-11.5s-5.6-10.2-6-16.1h24.5c0.5,3.7,2.3,6.8,5.5,9.2c3.2,2.4,7.1,3.6,11.9,3.6
		c4.6,0,8.2-0.9,10.8-2.8c2.6-1.8,3.9-4.2,3.9-7.1c0-3.1-1.6-5.5-4.8-7c-3.2-1.6-8.2-3.3-15.2-5.1c-7.2-1.7-13-3.5-17.6-5.4
		c-4.6-1.8-8.5-4.7-11.8-8.5c-3.3-3.8-4.9-9-4.9-15.4c0-5.3,1.5-10.2,4.6-14.6c3.1-4.4,7.5-7.9,13.2-10.4c5.7-2.5,12.5-3.8,20.2-3.8
		c11.4,0,20.6,2.9,27.4,8.6c6.8,5.7,10.6,13.4,11.3,23.2h-23.2c-0.3-3.8-1.9-6.9-4.8-9.1c-2.8-2.3-6.6-3.4-11.4-3.4
		c-4.4,0-7.8,0.8-10.1,2.4c-2.4,1.6-3.6,3.9-3.6,6.8c0,3.2,1.6,5.7,4.9,7.4c3.2,1.7,8.3,3.4,15.1,5.1c6.9,1.7,12.7,3.5,17.2,5.4
		c4.5,1.9,8.4,4.7,11.7,8.6c3.3,3.9,5,9,5.1,15.3c0,5.6-1.5,10.5-4.6,14.9c-3.1,4.4-7.5,7.8-13.2,10.3c-5.7,2.5-12.4,3.7-20,3.7
		C570,132.8,563,131.3,556.7,128.5z"></path>
	<path d="M663.9,55.1v46.5c0,3.2,0.8,5.6,2.3,7c1.6,1.4,4.2,2.2,7.9,2.2h11.3v20.5h-15.3c-20.5,0-30.7-9.9-30.7-29.8V55.1H628V35.1
		h11.4V11.4h24.5v23.8h21.5v19.9H663.9z"></path>
	<path d="M803.3,10.1v121.1h-24.3V79.7h-51.9v51.5h-24.3V10.1h24.3v49.8h51.9V10.1H803.3z"></path>
	<path d="M915.9,90.4h-70.2c0.6,6.9,3,12.4,7.3,16.3c4.3,3.9,9.5,5.9,15.8,5.9c9,0,15.4-3.9,19.3-11.6h26.2
		c-2.8,9.3-8.1,16.9-16,22.8c-7.9,6-17.5,8.9-29,8.9c-9.3,0-17.5-2.1-24.9-6.2c-7.3-4.1-13.1-9.9-17.2-17.4
		c-4.1-7.5-6.2-16.2-6.2-26c0-9.9,2-18.7,6.1-26.2c4-7.5,9.7-13.3,17-17.3c7.3-4,15.7-6.1,25.1-6.1c9.1,0,17.3,2,24.5,5.9
		c7.2,3.9,12.8,9.5,16.8,16.7c4,7.2,6,15.5,6,24.9C916.6,84.5,916.4,87.7,915.9,90.4z M891.4,74.1c-0.1-6.2-2.4-11.2-6.8-15
		c-4.4-3.8-9.8-5.6-16.1-5.6c-6,0-11.1,1.8-15.2,5.5c-4.1,3.6-6.6,8.7-7.5,15.2H891.4z"></path>
	<path d="M933.8,57c3.9-7.5,9.1-13.3,15.8-17.3c6.6-4,14.1-6.1,22.3-6.1c7.2,0,13.4,1.4,18.8,4.3c5.4,2.9,9.7,6.5,12.9,10.9V35.1
		h24.5v96.1h-24.5v-14c-3.1,4.5-7.4,8.2-12.9,11.2c-5.5,2.9-11.8,4.4-19,4.4c-8.1,0-15.5-2.1-22.1-6.2c-6.7-4.2-11.9-10-15.8-17.6
		c-3.9-7.6-5.8-16.3-5.8-26.1C928,73.1,930,64.5,933.8,57z M1000.2,68c-2.3-4.2-5.4-7.5-9.4-9.7c-3.9-2.3-8.2-3.4-12.7-3.4
		c-4.5,0-8.7,1.1-12.5,3.3c-3.8,2.2-6.9,5.4-9.3,9.6c-2.4,4.2-3.6,9.2-3.6,15c0,5.8,1.2,10.8,3.6,15.2c2.4,4.3,5.5,7.7,9.4,10
		c3.9,2.3,8,3.5,12.4,3.5c4.5,0,8.7-1.1,12.7-3.4c3.9-2.3,7.1-5.5,9.4-9.7c2.3-4.2,3.5-9.3,3.5-15.2S1002.5,72.2,1000.2,68z"></path>
	<path d="M1076.2,2.9v128.3h-24.3V2.9H1076.2z"></path>
	<path d="M1128.4,55.1v46.5c0,3.2,0.8,5.6,2.3,7c1.6,1.4,4.2,2.2,7.9,2.2h11.3v20.5h-15.3c-20.5,0-30.7-9.9-30.7-29.8V55.1h-11.4
		V35.1h11.4V11.4h24.5v23.8h21.5v19.9H1128.4z"></path>
	<path d="M1240.9,38.5c5.7,3.2,10.1,7.9,13.3,14c3.2,6.2,4.8,13.6,4.8,22.3v56.4h-24.3V78.1c0-7.6-1.9-13.5-5.7-17.6
		c-3.8-4.1-9-6.2-15.6-6.2c-6.7,0-12,2.1-15.9,6.2c-3.9,4.1-5.8,10-5.8,17.6v53.1h-24.3V2.9h24.3v44.2c3.1-4.2,7.3-7.4,12.5-9.8
		c5.2-2.4,11-3.6,17.3-3.6C1228.8,33.7,1235.2,35.3,1240.9,38.5z"></path>
</g>
<rect y="-17" style="fill:none;" width="1272.5" height="251"></rect>
</svg>